# xmcd
#
# Track frame offsets:
# 150
# 26050
# 51440
# 68768
# 88265
# 105158
# 126118
# 147063
# 169978
# 191983
#
# Disc length: 2803 seconds
#
#
# Revision: 0
# Processed by: cddbd v1.5.1PL0 Copyright (c) Steve Scherf et al.
# Submitted via: FreeRIP 2.80 
#
DISCID=8e0af10a
DTITLE=跟往事乾杯 - 醉心集-2
DYEAR=1900
DGENRE=Folklore
TTITLE0=跟往事乾杯
TTITLE1=你是我永遠胸口的痛
TTITLE2=快樂天堂
TTITLE3=今夕是何夕
TTITLE4=海上花
TTITLE5=謝謝你曾經愛我
TTITLE6=最愛
TTITLE7=我的未來不是夢
TTITLE8=走出孤獨
TTITLE9=手著陽光手著你
EXTD=劉松輝
EXTT0=
EXTT1=
EXTT2=
EXTT3=
EXTT4=
EXTT5=
EXTT6=
EXTT7=
EXTT8=
EXTT9=
PLAYORDER=
